<?xml version="1.0" standalone="no"?><svg xmlns="http://www.w3.org/2000/svg" viewBox="0 0 1440 320"><path fill="#CEB6B6" fill-opacity="1" d="M0,96L18.5,128C36.9,160,74,224,111,240C147.7,256,185,224,222,202.7C258.5,181,295,171,332,154.7C369.2,139,406,117,443,138.7C480,160,517,224,554,234.7C590.8,245,628,203,665,208C701.5,213,738,267,775,266.7C812.3,267,849,213,886,197.3C923.1,181,960,203,997,186.7C1033.8,171,1071,117,1108,96C1144.6,75,1182,85,1218,101.3C1255.4,117,1292,139,1329,138.7C1366.2,139,1403,117,1422,106.7L1440,96L1440,0L1421.5,0C1403.1,0,1366,0,1329,0C1292.3,0,1255,0,1218,0C1181.5,0,1145,0,1108,0C1070.8,0,1034,0,997,0C960,0,923,0,886,0C849.2,0,812,0,775,0C738.5,0,702,0,665,0C627.7,0,591,0,554,0C516.9,0,480,0,443,0C406.2,0,369,0,332,0C295.4,0,258,0,222,0C184.6,0,148,0,111,0C73.8,0,37,0,18,0L0,0Z"></path></svg>