<?xml version="1.0" standalone="no"?><svg xmlns="http://www.w3.org/2000/svg" viewBox="0 0 1440 320"><path fill="#eac8c3" fill-opacity="1" d="M0,192L34.3,208C68.6,224,137,256,206,229.3C274.3,203,343,117,411,106.7C480,96,549,160,617,170.7C685.7,181,754,139,823,128C891.4,117,960,139,1029,170.7C1097.1,203,1166,245,1234,240C1302.9,235,1371,181,1406,154.7L1440,128L1440,0L1405.7,0C1371.4,0,1303,0,1234,0C1165.7,0,1097,0,1029,0C960,0,891,0,823,0C754.3,0,686,0,617,0C548.6,0,480,0,411,0C342.9,0,274,0,206,0C137.1,0,69,0,34,0L0,0Z"></path></svg>