<?xml version="1.0" standalone="no"?><svg xmlns="http://www.w3.org/2000/svg" viewBox="0 0 1440 320"><path fill="#AD8586" fill-opacity="1" d="M0,288L21.8,245.3C43.6,203,87,117,131,117.3C174.5,117,218,203,262,224C305.5,245,349,203,393,154.7C436.4,107,480,53,524,64C567.3,75,611,149,655,176C698.2,203,742,181,785,192C829.1,203,873,245,916,256C960,267,1004,245,1047,224C1090.9,203,1135,181,1178,149.3C1221.8,117,1265,75,1309,80C1352.7,85,1396,139,1418,165.3L1440,192L1440,0L1418.2,0C1396.4,0,1353,0,1309,0C1265.5,0,1222,0,1178,0C1134.5,0,1091,0,1047,0C1003.6,0,960,0,916,0C872.7,0,829,0,785,0C741.8,0,698,0,655,0C610.9,0,567,0,524,0C480,0,436,0,393,0C349.1,0,305,0,262,0C218.2,0,175,0,131,0C87.3,0,44,0,22,0L0,0Z"></path></svg>