<?xml version="1.0" standalone="no"?><svg xmlns="http://www.w3.org/2000/svg" viewBox="0 0 1440 320"><path fill="#AD8586" fill-opacity="1" d="M0,128L21.8,154.7C43.6,181,87,235,131,256C174.5,277,218,267,262,266.7C305.5,267,349,277,393,266.7C436.4,256,480,224,524,218.7C567.3,213,611,235,655,218.7C698.2,203,742,149,785,133.3C829.1,117,873,139,916,128C960,117,1004,75,1047,53.3C1090.9,32,1135,32,1178,37.3C1221.8,43,1265,53,1309,74.7C1352.7,96,1396,128,1418,144L1440,160L1440,0L1418.2,0C1396.4,0,1353,0,1309,0C1265.5,0,1222,0,1178,0C1134.5,0,1091,0,1047,0C1003.6,0,960,0,916,0C872.7,0,829,0,785,0C741.8,0,698,0,655,0C610.9,0,567,0,524,0C480,0,436,0,393,0C349.1,0,305,0,262,0C218.2,0,175,0,131,0C87.3,0,44,0,22,0L0,0Z"></path></svg>